<svg xmlns="http://www.w3.org/2000/svg" xmlns:xlink="http://www.w3.org/1999/xlink" width="300" zoomAndPan="magnify" viewBox="0 0 224.87999 67.499998" height="90" preserveAspectRatio="xMidYMid meet" version="1.0"><defs><g/></defs><g fill="#000000" fill-opacity="0.4"><g transform="translate(1.083633, 46.158085)"><g><path d="M 3.21875 -27.171875 L 9.515625 -27.171875 L 9.515625 -5.125 L 23.125 -5.125 L 23.125 0 L 3.21875 0 Z M 3.21875 -27.171875 "/></g></g></g><g fill="#000000" fill-opacity="0.4"><g transform="translate(21.340002, 46.158085)"><g><path d="M 2.796875 -20.875 L 8.84375 -20.875 L 8.84375 0 L 2.796875 0 Z M 5.828125 -23.796875 C 4.710938 -23.796875 3.804688 -24.117188 3.109375 -24.765625 C 2.410156 -25.410156 2.0625 -26.210938 2.0625 -27.171875 C 2.0625 -28.128906 2.410156 -28.929688 3.109375 -29.578125 C 3.804688 -30.222656 4.710938 -30.546875 5.828125 -30.546875 C 6.941406 -30.546875 7.847656 -30.234375 8.546875 -29.609375 C 9.242188 -28.992188 9.59375 -28.21875 9.59375 -27.28125 C 9.59375 -26.269531 9.242188 -25.4375 8.546875 -24.78125 C 7.847656 -24.125 6.941406 -23.796875 5.828125 -23.796875 Z M 5.828125 -23.796875 "/></g></g></g><g fill="#000000" fill-opacity="0.4"><g transform="translate(29.838069, 46.158085)"><g><path d="M 9.4375 -20.421875 L 14.78125 -20.421875 L 14.78125 -15.765625 L 9.59375 -15.765625 L 9.59375 0 L 3.53125 0 L 3.53125 -15.765625 L 0.3125 -15.765625 L 0.3125 -20.421875 L 3.53125 -20.421875 L 3.53125 -21.34375 C 3.53125 -23.726562 4.234375 -25.617188 5.640625 -27.015625 C 7.054688 -28.410156 9.046875 -29.109375 11.609375 -29.109375 C 12.515625 -29.109375 13.375 -29.007812 14.1875 -28.8125 C 15 -28.625 15.675781 -28.347656 16.21875 -27.984375 L 14.625 -23.59375 C 13.925781 -24.082031 13.113281 -24.328125 12.1875 -24.328125 C 10.351562 -24.328125 9.4375 -23.320312 9.4375 -21.3125 Z M 9.4375 -20.421875 "/></g></g></g><g fill="#000000" fill-opacity="0.4"><g transform="translate(41.673471, 46.158085)"><g><path d="M 16.265625 -1.015625 C 15.671875 -0.566406 14.9375 -0.234375 14.0625 -0.015625 C 13.195312 0.203125 12.285156 0.3125 11.328125 0.3125 C 8.847656 0.3125 6.925781 -0.320312 5.5625 -1.59375 C 4.207031 -2.863281 3.53125 -4.726562 3.53125 -7.1875 L 3.53125 -15.765625 L 0.3125 -15.765625 L 0.3125 -20.421875 L 3.53125 -20.421875 L 3.53125 -25.5 L 9.59375 -25.5 L 9.59375 -20.421875 L 14.78125 -20.421875 L 14.78125 -15.765625 L 9.59375 -15.765625 L 9.59375 -7.265625 C 9.59375 -6.378906 9.816406 -5.695312 10.265625 -5.21875 C 10.710938 -4.738281 11.351562 -4.5 12.1875 -4.5 C 13.144531 -4.5 13.957031 -4.757812 14.625 -5.28125 Z M 16.265625 -1.015625 "/></g></g></g><g fill="#000000" fill-opacity="0.4"><g transform="translate(55.371575, 46.158085)"><g><path d="M 2.796875 -20.875 L 8.84375 -20.875 L 8.84375 0 L 2.796875 0 Z M 5.828125 -23.796875 C 4.710938 -23.796875 3.804688 -24.117188 3.109375 -24.765625 C 2.410156 -25.410156 2.0625 -26.210938 2.0625 -27.171875 C 2.0625 -28.128906 2.410156 -28.929688 3.109375 -29.578125 C 3.804688 -30.222656 4.710938 -30.546875 5.828125 -30.546875 C 6.941406 -30.546875 7.847656 -30.234375 8.546875 -29.609375 C 9.242188 -28.992188 9.59375 -28.21875 9.59375 -27.28125 C 9.59375 -26.269531 9.242188 -25.4375 8.546875 -24.78125 C 7.847656 -24.125 6.941406 -23.796875 5.828125 -23.796875 Z M 5.828125 -23.796875 "/></g></g></g><g fill="#000000" fill-opacity="0.4"><g transform="translate(63.869642, 46.158085)"><g><path d="M 15.484375 -21.1875 C 18.078125 -21.1875 20.164062 -20.410156 21.75 -18.859375 C 23.34375 -17.304688 24.140625 -15.003906 24.140625 -11.953125 L 24.140625 0 L 18.09375 0 L 18.09375 -11.015625 C 18.09375 -12.671875 17.726562 -13.90625 17 -14.71875 C 16.269531 -15.539062 15.222656 -15.953125 13.859375 -15.953125 C 12.328125 -15.953125 11.109375 -15.476562 10.203125 -14.53125 C 9.296875 -13.59375 8.84375 -12.191406 8.84375 -10.328125 L 8.84375 0 L 2.796875 0 L 2.796875 -20.875 L 8.578125 -20.875 L 8.578125 -18.4375 C 9.378906 -19.3125 10.375 -19.988281 11.5625 -20.46875 C 12.75 -20.945312 14.054688 -21.1875 15.484375 -21.1875 Z M 15.484375 -21.1875 "/></g></g></g><g fill="#000000" fill-opacity="0.4"><g transform="translate(87.502152, 46.158085)"><g><path d="M 24.328125 -20.875 L 24.328125 -3.5 C 24.328125 0.332031 23.332031 3.179688 21.34375 5.046875 C 19.351562 6.910156 16.441406 7.84375 12.609375 7.84375 C 10.597656 7.84375 8.6875 7.59375 6.875 7.09375 C 5.0625 6.601562 3.5625 5.894531 2.375 4.96875 L 4.78125 0.625 C 5.65625 1.34375 6.765625 1.914062 8.109375 2.34375 C 9.453125 2.769531 10.796875 2.984375 12.140625 2.984375 C 14.242188 2.984375 15.789062 2.507812 16.78125 1.5625 C 17.78125 0.625 18.28125 -0.800781 18.28125 -2.71875 L 18.28125 -3.609375 C 16.695312 -1.878906 14.5 -1.015625 11.6875 -1.015625 C 9.769531 -1.015625 8.015625 -1.429688 6.421875 -2.265625 C 4.828125 -3.109375 3.5625 -4.289062 2.625 -5.8125 C 1.695312 -7.34375 1.234375 -9.101562 1.234375 -11.09375 C 1.234375 -13.09375 1.695312 -14.851562 2.625 -16.375 C 3.5625 -17.90625 4.828125 -19.085938 6.421875 -19.921875 C 8.015625 -20.765625 9.769531 -21.1875 11.6875 -21.1875 C 14.707031 -21.1875 17.007812 -20.191406 18.59375 -18.203125 L 18.59375 -20.875 Z M 12.890625 -5.984375 C 14.492188 -5.984375 15.804688 -6.453125 16.828125 -7.390625 C 17.847656 -8.335938 18.359375 -9.570312 18.359375 -11.09375 C 18.359375 -12.625 17.847656 -13.859375 16.828125 -14.796875 C 15.804688 -15.742188 14.492188 -16.21875 12.890625 -16.21875 C 11.285156 -16.21875 9.960938 -15.742188 8.921875 -14.796875 C 7.890625 -13.859375 7.375 -12.625 7.375 -11.09375 C 7.375 -9.570312 7.890625 -8.335938 8.921875 -7.390625 C 9.960938 -6.453125 11.285156 -5.984375 12.890625 -5.984375 Z M 12.890625 -5.984375 "/></g></g></g><g fill="#000000" fill-opacity="0.4"><g transform="translate(111.483923, 46.158085)"><g/></g></g><g fill="#000000" fill-opacity="0.4"><g transform="translate(119.283479, 46.158085)"><g><path d="M 12.140625 0.46875 C 9.992188 0.46875 7.914062 0.175781 5.90625 -0.40625 C 3.90625 -0.988281 2.300781 -1.742188 1.09375 -2.671875 L 3.21875 -7.40625 C 4.382812 -6.550781 5.769531 -5.863281 7.375 -5.34375 C 8.976562 -4.832031 10.582031 -4.578125 12.1875 -4.578125 C 13.96875 -4.578125 15.285156 -4.84375 16.140625 -5.375 C 16.992188 -5.90625 17.421875 -6.609375 17.421875 -7.484375 C 17.421875 -8.140625 17.164062 -8.675781 16.65625 -9.09375 C 16.15625 -9.519531 15.507812 -9.863281 14.71875 -10.125 C 13.9375 -10.382812 12.875 -10.671875 11.53125 -10.984375 C 9.457031 -11.472656 7.757812 -11.960938 6.4375 -12.453125 C 5.125 -12.953125 3.992188 -13.742188 3.046875 -14.828125 C 2.097656 -15.910156 1.625 -17.359375 1.625 -19.171875 C 1.625 -20.753906 2.050781 -22.1875 2.90625 -23.46875 C 3.757812 -24.75 5.046875 -25.765625 6.765625 -26.515625 C 8.492188 -27.265625 10.597656 -27.640625 13.078125 -27.640625 C 14.816406 -27.640625 16.507812 -27.429688 18.15625 -27.015625 C 19.8125 -26.597656 21.265625 -26.003906 22.515625 -25.234375 L 20.578125 -20.453125 C 18.066406 -21.878906 15.554688 -22.59375 13.046875 -22.59375 C 11.285156 -22.59375 9.984375 -22.304688 9.140625 -21.734375 C 8.296875 -21.160156 7.875 -20.410156 7.875 -19.484375 C 7.875 -18.554688 8.359375 -17.863281 9.328125 -17.40625 C 10.304688 -16.957031 11.789062 -16.507812 13.78125 -16.0625 C 15.851562 -15.570312 17.546875 -15.082031 18.859375 -14.59375 C 20.179688 -14.101562 21.3125 -13.328125 22.25 -12.265625 C 23.195312 -11.203125 23.671875 -9.765625 23.671875 -7.953125 C 23.671875 -6.398438 23.238281 -4.984375 22.375 -3.703125 C 21.507812 -2.421875 20.207031 -1.40625 18.46875 -0.65625 C 16.738281 0.09375 14.628906 0.46875 12.140625 0.46875 Z M 12.140625 0.46875 "/></g></g></g><g fill="#000000" fill-opacity="0.4"><g transform="translate(140.859259, 46.158085)"><g><path d="M 12.734375 0.3125 C 10.535156 0.3125 8.5625 -0.144531 6.8125 -1.0625 C 5.0625 -1.976562 3.691406 -3.25 2.703125 -4.875 C 1.722656 -6.507812 1.234375 -8.363281 1.234375 -10.4375 C 1.234375 -12.507812 1.722656 -14.359375 2.703125 -15.984375 C 3.691406 -17.617188 5.0625 -18.894531 6.8125 -19.8125 C 8.5625 -20.726562 10.535156 -21.1875 12.734375 -21.1875 C 14.929688 -21.1875 16.894531 -20.726562 18.625 -19.8125 C 20.363281 -18.894531 21.722656 -17.617188 22.703125 -15.984375 C 23.691406 -14.359375 24.1875 -12.507812 24.1875 -10.4375 C 24.1875 -8.363281 23.691406 -6.507812 22.703125 -4.875 C 21.722656 -3.25 20.363281 -1.976562 18.625 -1.0625 C 16.894531 -0.144531 14.929688 0.3125 12.734375 0.3125 Z M 12.734375 -4.65625 C 14.285156 -4.65625 15.554688 -5.175781 16.546875 -6.21875 C 17.546875 -7.269531 18.046875 -8.675781 18.046875 -10.4375 C 18.046875 -12.195312 17.546875 -13.597656 16.546875 -14.640625 C 15.554688 -15.691406 14.285156 -16.21875 12.734375 -16.21875 C 11.179688 -16.21875 9.898438 -15.691406 8.890625 -14.640625 C 7.878906 -13.597656 7.375 -12.195312 7.375 -10.4375 C 7.375 -8.675781 7.878906 -7.269531 8.890625 -6.21875 C 9.898438 -5.175781 11.179688 -4.65625 12.734375 -4.65625 Z M 12.734375 -4.65625 "/></g></g></g><g fill="#000000" fill-opacity="0.4"><g transform="translate(163.094747, 46.158085)"><g><path d="M 12.890625 0.3125 C 10.660156 0.3125 8.660156 -0.144531 6.890625 -1.0625 C 5.117188 -1.976562 3.734375 -3.25 2.734375 -4.875 C 1.734375 -6.507812 1.234375 -8.363281 1.234375 -10.4375 C 1.234375 -12.507812 1.734375 -14.359375 2.734375 -15.984375 C 3.734375 -17.617188 5.117188 -18.894531 6.890625 -19.8125 C 8.660156 -20.726562 10.660156 -21.1875 12.890625 -21.1875 C 15.085938 -21.1875 17.003906 -20.726562 18.640625 -19.8125 C 20.285156 -18.894531 21.484375 -17.582031 22.234375 -15.875 L 17.546875 -13.34375 C 16.453125 -15.257812 14.882812 -16.21875 12.84375 -16.21875 C 11.269531 -16.21875 9.960938 -15.703125 8.921875 -14.671875 C 7.890625 -13.640625 7.375 -12.226562 7.375 -10.4375 C 7.375 -8.65625 7.890625 -7.242188 8.921875 -6.203125 C 9.960938 -5.171875 11.269531 -4.65625 12.84375 -4.65625 C 14.914062 -4.65625 16.484375 -5.613281 17.546875 -7.53125 L 22.234375 -4.96875 C 21.484375 -3.3125 20.285156 -2.015625 18.640625 -1.078125 C 17.003906 -0.148438 15.085938 0.3125 12.890625 0.3125 Z M 12.890625 0.3125 "/></g></g></g><g fill="#000000" fill-opacity="0.4"><g transform="translate(182.846632, 46.158085)"><g><path d="M 2.796875 -20.875 L 8.84375 -20.875 L 8.84375 0 L 2.796875 0 Z M 5.828125 -23.796875 C 4.710938 -23.796875 3.804688 -24.117188 3.109375 -24.765625 C 2.410156 -25.410156 2.0625 -26.210938 2.0625 -27.171875 C 2.0625 -28.128906 2.410156 -28.929688 3.109375 -29.578125 C 3.804688 -30.222656 4.710938 -30.546875 5.828125 -30.546875 C 6.941406 -30.546875 7.847656 -30.234375 8.546875 -29.609375 C 9.242188 -28.992188 9.59375 -28.21875 9.59375 -27.28125 C 9.59375 -26.269531 9.242188 -25.4375 8.546875 -24.78125 C 7.847656 -24.125 6.941406 -23.796875 5.828125 -23.796875 Z M 5.828125 -23.796875 "/></g></g></g><g fill="#000000" fill-opacity="0.4"><g transform="translate(191.344699, 46.158085)"><g><path d="M 11.21875 -21.1875 C 14.445312 -21.1875 16.925781 -20.414062 18.65625 -18.875 C 20.394531 -17.34375 21.265625 -15.023438 21.265625 -11.921875 L 21.265625 0 L 15.609375 0 L 15.609375 -2.59375 C 14.460938 -0.65625 12.335938 0.3125 9.234375 0.3125 C 7.628906 0.3125 6.238281 0.0390625 5.0625 -0.5 C 3.882812 -1.039062 2.984375 -1.789062 2.359375 -2.75 C 1.742188 -3.707031 1.4375 -4.796875 1.4375 -6.015625 C 1.4375 -7.953125 2.164062 -9.476562 3.625 -10.59375 C 5.09375 -11.707031 7.351562 -12.265625 10.40625 -12.265625 L 15.21875 -12.265625 C 15.21875 -13.585938 14.816406 -14.601562 14.015625 -15.3125 C 13.210938 -16.019531 12.007812 -16.375 10.40625 -16.375 C 9.289062 -16.375 8.195312 -16.195312 7.125 -15.84375 C 6.050781 -15.5 5.140625 -15.03125 4.390625 -14.4375 L 2.21875 -18.671875 C 3.351562 -19.472656 4.710938 -20.09375 6.296875 -20.53125 C 7.890625 -20.96875 9.53125 -21.1875 11.21875 -21.1875 Z M 10.75 -3.765625 C 11.78125 -3.765625 12.695312 -4.003906 13.5 -4.484375 C 14.300781 -4.960938 14.875 -5.664062 15.21875 -6.59375 L 15.21875 -8.734375 L 11.0625 -8.734375 C 8.570312 -8.734375 7.328125 -7.914062 7.328125 -6.28125 C 7.328125 -5.507812 7.628906 -4.894531 8.234375 -4.4375 C 8.847656 -3.988281 9.6875 -3.765625 10.75 -3.765625 Z M 10.75 -3.765625 "/></g></g></g><g fill="#000000" fill-opacity="0.4"><g transform="translate(212.105552, 46.158085)"><g><path d="M 2.796875 -28.796875 L 8.84375 -28.796875 L 8.84375 0 L 2.796875 0 Z M 2.796875 -28.796875 "/></g></g></g><g fill="#000000" fill-opacity="1"><g transform="translate(1.083633, 46.158085)"><g><path d="M 3.21875 -27.171875 L 9.515625 -27.171875 L 9.515625 -5.125 L 23.125 -5.125 L 23.125 0 L 3.21875 0 Z M 3.21875 -27.171875 "/></g></g></g><g fill="#000000" fill-opacity="1"><g transform="translate(21.340002, 46.158085)"><g><path d="M 2.796875 -20.875 L 8.84375 -20.875 L 8.84375 0 L 2.796875 0 Z M 5.828125 -23.796875 C 4.710938 -23.796875 3.804688 -24.117188 3.109375 -24.765625 C 2.410156 -25.410156 2.0625 -26.210938 2.0625 -27.171875 C 2.0625 -28.128906 2.410156 -28.929688 3.109375 -29.578125 C 3.804688 -30.222656 4.710938 -30.546875 5.828125 -30.546875 C 6.941406 -30.546875 7.847656 -30.234375 8.546875 -29.609375 C 9.242188 -28.992188 9.59375 -28.21875 9.59375 -27.28125 C 9.59375 -26.269531 9.242188 -25.4375 8.546875 -24.78125 C 7.847656 -24.125 6.941406 -23.796875 5.828125 -23.796875 Z M 5.828125 -23.796875 "/></g></g></g><g fill="#000000" fill-opacity="1"><g transform="translate(29.838069, 46.158085)"><g><path d="M 9.4375 -20.421875 L 14.78125 -20.421875 L 14.78125 -15.765625 L 9.59375 -15.765625 L 9.59375 0 L 3.53125 0 L 3.53125 -15.765625 L 0.3125 -15.765625 L 0.3125 -20.421875 L 3.53125 -20.421875 L 3.53125 -21.34375 C 3.53125 -23.726562 4.234375 -25.617188 5.640625 -27.015625 C 7.054688 -28.410156 9.046875 -29.109375 11.609375 -29.109375 C 12.515625 -29.109375 13.375 -29.007812 14.1875 -28.8125 C 15 -28.625 15.675781 -28.347656 16.21875 -27.984375 L 14.625 -23.59375 C 13.925781 -24.082031 13.113281 -24.328125 12.1875 -24.328125 C 10.351562 -24.328125 9.4375 -23.320312 9.4375 -21.3125 Z M 9.4375 -20.421875 "/></g></g></g><g fill="#000000" fill-opacity="1"><g transform="translate(41.673471, 46.158085)"><g><path d="M 16.265625 -1.015625 C 15.671875 -0.566406 14.9375 -0.234375 14.0625 -0.015625 C 13.195312 0.203125 12.285156 0.3125 11.328125 0.3125 C 8.847656 0.3125 6.925781 -0.320312 5.5625 -1.59375 C 4.207031 -2.863281 3.53125 -4.726562 3.53125 -7.1875 L 3.53125 -15.765625 L 0.3125 -15.765625 L 0.3125 -20.421875 L 3.53125 -20.421875 L 3.53125 -25.5 L 9.59375 -25.5 L 9.59375 -20.421875 L 14.78125 -20.421875 L 14.78125 -15.765625 L 9.59375 -15.765625 L 9.59375 -7.265625 C 9.59375 -6.378906 9.816406 -5.695312 10.265625 -5.21875 C 10.710938 -4.738281 11.351562 -4.5 12.1875 -4.5 C 13.144531 -4.5 13.957031 -4.757812 14.625 -5.28125 Z M 16.265625 -1.015625 "/></g></g></g><g fill="#000000" fill-opacity="1"><g transform="translate(55.371575, 46.158085)"><g><path d="M 2.796875 -20.875 L 8.84375 -20.875 L 8.84375 0 L 2.796875 0 Z M 5.828125 -23.796875 C 4.710938 -23.796875 3.804688 -24.117188 3.109375 -24.765625 C 2.410156 -25.410156 2.0625 -26.210938 2.0625 -27.171875 C 2.0625 -28.128906 2.410156 -28.929688 3.109375 -29.578125 C 3.804688 -30.222656 4.710938 -30.546875 5.828125 -30.546875 C 6.941406 -30.546875 7.847656 -30.234375 8.546875 -29.609375 C 9.242188 -28.992188 9.59375 -28.21875 9.59375 -27.28125 C 9.59375 -26.269531 9.242188 -25.4375 8.546875 -24.78125 C 7.847656 -24.125 6.941406 -23.796875 5.828125 -23.796875 Z M 5.828125 -23.796875 "/></g></g></g><g fill="#000000" fill-opacity="1"><g transform="translate(63.869642, 46.158085)"><g><path d="M 15.484375 -21.1875 C 18.078125 -21.1875 20.164062 -20.410156 21.75 -18.859375 C 23.34375 -17.304688 24.140625 -15.003906 24.140625 -11.953125 L 24.140625 0 L 18.09375 0 L 18.09375 -11.015625 C 18.09375 -12.671875 17.726562 -13.90625 17 -14.71875 C 16.269531 -15.539062 15.222656 -15.953125 13.859375 -15.953125 C 12.328125 -15.953125 11.109375 -15.476562 10.203125 -14.53125 C 9.296875 -13.59375 8.84375 -12.191406 8.84375 -10.328125 L 8.84375 0 L 2.796875 0 L 2.796875 -20.875 L 8.578125 -20.875 L 8.578125 -18.4375 C 9.378906 -19.3125 10.375 -19.988281 11.5625 -20.46875 C 12.75 -20.945312 14.054688 -21.1875 15.484375 -21.1875 Z M 15.484375 -21.1875 "/></g></g></g><g fill="#000000" fill-opacity="1"><g transform="translate(87.502152, 46.158085)"><g><path d="M 24.328125 -20.875 L 24.328125 -3.5 C 24.328125 0.332031 23.332031 3.179688 21.34375 5.046875 C 19.351562 6.910156 16.441406 7.84375 12.609375 7.84375 C 10.597656 7.84375 8.6875 7.59375 6.875 7.09375 C 5.0625 6.601562 3.5625 5.894531 2.375 4.96875 L 4.78125 0.625 C 5.65625 1.34375 6.765625 1.914062 8.109375 2.34375 C 9.453125 2.769531 10.796875 2.984375 12.140625 2.984375 C 14.242188 2.984375 15.789062 2.507812 16.78125 1.5625 C 17.78125 0.625 18.28125 -0.800781 18.28125 -2.71875 L 18.28125 -3.609375 C 16.695312 -1.878906 14.5 -1.015625 11.6875 -1.015625 C 9.769531 -1.015625 8.015625 -1.429688 6.421875 -2.265625 C 4.828125 -3.109375 3.5625 -4.289062 2.625 -5.8125 C 1.695312 -7.34375 1.234375 -9.101562 1.234375 -11.09375 C 1.234375 -13.09375 1.695312 -14.851562 2.625 -16.375 C 3.5625 -17.90625 4.828125 -19.085938 6.421875 -19.921875 C 8.015625 -20.765625 9.769531 -21.1875 11.6875 -21.1875 C 14.707031 -21.1875 17.007812 -20.191406 18.59375 -18.203125 L 18.59375 -20.875 Z M 12.890625 -5.984375 C 14.492188 -5.984375 15.804688 -6.453125 16.828125 -7.390625 C 17.847656 -8.335938 18.359375 -9.570312 18.359375 -11.09375 C 18.359375 -12.625 17.847656 -13.859375 16.828125 -14.796875 C 15.804688 -15.742188 14.492188 -16.21875 12.890625 -16.21875 C 11.285156 -16.21875 9.960938 -15.742188 8.921875 -14.796875 C 7.890625 -13.859375 7.375 -12.625 7.375 -11.09375 C 7.375 -9.570312 7.890625 -8.335938 8.921875 -7.390625 C 9.960938 -6.453125 11.285156 -5.984375 12.890625 -5.984375 Z M 12.890625 -5.984375 "/></g></g></g><g fill="#000000" fill-opacity="1"><g transform="translate(111.483923, 46.158085)"><g/></g></g><g fill="#000000" fill-opacity="1"><g transform="translate(119.283479, 46.158085)"><g><path d="M 12.140625 0.46875 C 9.992188 0.46875 7.914062 0.175781 5.90625 -0.40625 C 3.90625 -0.988281 2.300781 -1.742188 1.09375 -2.671875 L 3.21875 -7.40625 C 4.382812 -6.550781 5.769531 -5.863281 7.375 -5.34375 C 8.976562 -4.832031 10.582031 -4.578125 12.1875 -4.578125 C 13.96875 -4.578125 15.285156 -4.84375 16.140625 -5.375 C 16.992188 -5.90625 17.421875 -6.609375 17.421875 -7.484375 C 17.421875 -8.140625 17.164062 -8.675781 16.65625 -9.09375 C 16.15625 -9.519531 15.507812 -9.863281 14.71875 -10.125 C 13.9375 -10.382812 12.875 -10.671875 11.53125 -10.984375 C 9.457031 -11.472656 7.757812 -11.960938 6.4375 -12.453125 C 5.125 -12.953125 3.992188 -13.742188 3.046875 -14.828125 C 2.097656 -15.910156 1.625 -17.359375 1.625 -19.171875 C 1.625 -20.753906 2.050781 -22.1875 2.90625 -23.46875 C 3.757812 -24.75 5.046875 -25.765625 6.765625 -26.515625 C 8.492188 -27.265625 10.597656 -27.640625 13.078125 -27.640625 C 14.816406 -27.640625 16.507812 -27.429688 18.15625 -27.015625 C 19.8125 -26.597656 21.265625 -26.003906 22.515625 -25.234375 L 20.578125 -20.453125 C 18.066406 -21.878906 15.554688 -22.59375 13.046875 -22.59375 C 11.285156 -22.59375 9.984375 -22.304688 9.140625 -21.734375 C 8.296875 -21.160156 7.875 -20.410156 7.875 -19.484375 C 7.875 -18.554688 8.359375 -17.863281 9.328125 -17.40625 C 10.304688 -16.957031 11.789062 -16.507812 13.78125 -16.0625 C 15.851562 -15.570312 17.546875 -15.082031 18.859375 -14.59375 C 20.179688 -14.101562 21.3125 -13.328125 22.25 -12.265625 C 23.195312 -11.203125 23.671875 -9.765625 23.671875 -7.953125 C 23.671875 -6.398438 23.238281 -4.984375 22.375 -3.703125 C 21.507812 -2.421875 20.207031 -1.40625 18.46875 -0.65625 C 16.738281 0.09375 14.628906 0.46875 12.140625 0.46875 Z M 12.140625 0.46875 "/></g></g></g><g fill="#000000" fill-opacity="1"><g transform="translate(140.859259, 46.158085)"><g><path d="M 12.734375 0.3125 C 10.535156 0.3125 8.5625 -0.144531 6.8125 -1.0625 C 5.0625 -1.976562 3.691406 -3.25 2.703125 -4.875 C 1.722656 -6.507812 1.234375 -8.363281 1.234375 -10.4375 C 1.234375 -12.507812 1.722656 -14.359375 2.703125 -15.984375 C 3.691406 -17.617188 5.0625 -18.894531 6.8125 -19.8125 C 8.5625 -20.726562 10.535156 -21.1875 12.734375 -21.1875 C 14.929688 -21.1875 16.894531 -20.726562 18.625 -19.8125 C 20.363281 -18.894531 21.722656 -17.617188 22.703125 -15.984375 C 23.691406 -14.359375 24.1875 -12.507812 24.1875 -10.4375 C 24.1875 -8.363281 23.691406 -6.507812 22.703125 -4.875 C 21.722656 -3.25 20.363281 -1.976562 18.625 -1.0625 C 16.894531 -0.144531 14.929688 0.3125 12.734375 0.3125 Z M 12.734375 -4.65625 C 14.285156 -4.65625 15.554688 -5.175781 16.546875 -6.21875 C 17.546875 -7.269531 18.046875 -8.675781 18.046875 -10.4375 C 18.046875 -12.195312 17.546875 -13.597656 16.546875 -14.640625 C 15.554688 -15.691406 14.285156 -16.21875 12.734375 -16.21875 C 11.179688 -16.21875 9.898438 -15.691406 8.890625 -14.640625 C 7.878906 -13.597656 7.375 -12.195312 7.375 -10.4375 C 7.375 -8.675781 7.878906 -7.269531 8.890625 -6.21875 C 9.898438 -5.175781 11.179688 -4.65625 12.734375 -4.65625 Z M 12.734375 -4.65625 "/></g></g></g><g fill="#000000" fill-opacity="1"><g transform="translate(163.094747, 46.158085)"><g><path d="M 12.890625 0.3125 C 10.660156 0.3125 8.660156 -0.144531 6.890625 -1.0625 C 5.117188 -1.976562 3.734375 -3.25 2.734375 -4.875 C 1.734375 -6.507812 1.234375 -8.363281 1.234375 -10.4375 C 1.234375 -12.507812 1.734375 -14.359375 2.734375 -15.984375 C 3.734375 -17.617188 5.117188 -18.894531 6.890625 -19.8125 C 8.660156 -20.726562 10.660156 -21.1875 12.890625 -21.1875 C 15.085938 -21.1875 17.003906 -20.726562 18.640625 -19.8125 C 20.285156 -18.894531 21.484375 -17.582031 22.234375 -15.875 L 17.546875 -13.34375 C 16.453125 -15.257812 14.882812 -16.21875 12.84375 -16.21875 C 11.269531 -16.21875 9.960938 -15.703125 8.921875 -14.671875 C 7.890625 -13.640625 7.375 -12.226562 7.375 -10.4375 C 7.375 -8.65625 7.890625 -7.242188 8.921875 -6.203125 C 9.960938 -5.171875 11.269531 -4.65625 12.84375 -4.65625 C 14.914062 -4.65625 16.484375 -5.613281 17.546875 -7.53125 L 22.234375 -4.96875 C 21.484375 -3.3125 20.285156 -2.015625 18.640625 -1.078125 C 17.003906 -0.148438 15.085938 0.3125 12.890625 0.3125 Z M 12.890625 0.3125 "/></g></g></g><g fill="#000000" fill-opacity="1"><g transform="translate(182.846632, 46.158085)"><g><path d="M 2.796875 -20.875 L 8.84375 -20.875 L 8.84375 0 L 2.796875 0 Z M 5.828125 -23.796875 C 4.710938 -23.796875 3.804688 -24.117188 3.109375 -24.765625 C 2.410156 -25.410156 2.0625 -26.210938 2.0625 -27.171875 C 2.0625 -28.128906 2.410156 -28.929688 3.109375 -29.578125 C 3.804688 -30.222656 4.710938 -30.546875 5.828125 -30.546875 C 6.941406 -30.546875 7.847656 -30.234375 8.546875 -29.609375 C 9.242188 -28.992188 9.59375 -28.21875 9.59375 -27.28125 C 9.59375 -26.269531 9.242188 -25.4375 8.546875 -24.78125 C 7.847656 -24.125 6.941406 -23.796875 5.828125 -23.796875 Z M 5.828125 -23.796875 "/></g></g></g><g fill="#000000" fill-opacity="1"><g transform="translate(191.344699, 46.158085)"><g><path d="M 11.21875 -21.1875 C 14.445312 -21.1875 16.925781 -20.414062 18.65625 -18.875 C 20.394531 -17.34375 21.265625 -15.023438 21.265625 -11.921875 L 21.265625 0 L 15.609375 0 L 15.609375 -2.59375 C 14.460938 -0.65625 12.335938 0.3125 9.234375 0.3125 C 7.628906 0.3125 6.238281 0.0390625 5.0625 -0.5 C 3.882812 -1.039062 2.984375 -1.789062 2.359375 -2.75 C 1.742188 -3.707031 1.4375 -4.796875 1.4375 -6.015625 C 1.4375 -7.953125 2.164062 -9.476562 3.625 -10.59375 C 5.09375 -11.707031 7.351562 -12.265625 10.40625 -12.265625 L 15.21875 -12.265625 C 15.21875 -13.585938 14.816406 -14.601562 14.015625 -15.3125 C 13.210938 -16.019531 12.007812 -16.375 10.40625 -16.375 C 9.289062 -16.375 8.195312 -16.195312 7.125 -15.84375 C 6.050781 -15.5 5.140625 -15.03125 4.390625 -14.4375 L 2.21875 -18.671875 C 3.351562 -19.472656 4.710938 -20.09375 6.296875 -20.53125 C 7.890625 -20.96875 9.53125 -21.1875 11.21875 -21.1875 Z M 10.75 -3.765625 C 11.78125 -3.765625 12.695312 -4.003906 13.5 -4.484375 C 14.300781 -4.960938 14.875 -5.664062 15.21875 -6.59375 L 15.21875 -8.734375 L 11.0625 -8.734375 C 8.570312 -8.734375 7.328125 -7.914062 7.328125 -6.28125 C 7.328125 -5.507812 7.628906 -4.894531 8.234375 -4.4375 C 8.847656 -3.988281 9.6875 -3.765625 10.75 -3.765625 Z M 10.75 -3.765625 "/></g></g></g><g fill="#000000" fill-opacity="1"><g transform="translate(212.105552, 46.158085)"><g><path d="M 2.796875 -28.796875 L 8.84375 -28.796875 L 8.84375 0 L 2.796875 0 Z M 2.796875 -28.796875 "/></g></g></g></svg>